<svg width="80" height="78" viewBox="0 0 80 78" fill="none" xmlns="http://www.w3.org/2000/svg">
<path d="M39.8301 0.654297C61.4852 0.654297 79.0068 17.6882 79.0068 38.6602C79.0068 59.6321 61.4851 76.666 39.8301 76.666C18.1752 76.6658 0.654348 59.6319 0.654297 38.6602C0.654297 17.6883 18.1752 0.654479 39.8301 0.654297Z" stroke="#F6F6F1" stroke-width="1.30793"/>
<path d="M55.8273 56.5938H53.9049V25.8901L39.1573 45.6635L24.7942 26.0275V56.5938H22.8717V20.2053L39.1573 42.4778L55.8273 20.1504V56.5938Z" fill="#F6F6F1"/>
<path d="M55.8273 56.5938V56.9133H56.1469V56.5938H55.8273ZM53.9049 56.5938H53.5853V56.9133H53.9049V56.5938ZM53.9049 25.8901H54.2245V24.9272L53.6487 25.6991L53.9049 25.8901ZM39.1573 45.6635L38.8994 45.8522L39.1548 46.2014L39.4135 45.8545L39.1573 45.6635ZM24.7942 26.0275L25.0521 25.8388L24.4746 25.0493V26.0275H24.7942ZM24.7942 56.5938V56.9133H25.1137V56.5938H24.7942ZM22.8717 56.5938H22.5522V56.9133H22.8717V56.5938ZM22.8717 20.2053L23.1297 20.0167L22.5522 19.2268V20.2053H22.8717ZM39.1573 42.4778L38.8993 42.6664L39.1546 43.0155L39.4134 42.669L39.1573 42.4778ZM55.8273 20.1504H56.1469V19.1882L55.5712 19.9592L55.8273 20.1504ZM55.8273 56.5938V56.2742H53.9049V56.5938V56.9133H55.8273V56.5938ZM53.9049 56.5938H54.2245V25.8901H53.9049H53.5853V56.5938H53.9049ZM53.9049 25.8901L53.6487 25.6991L38.9011 45.4724L39.1573 45.6635L39.4135 45.8545L54.1611 26.0812L53.9049 25.8901ZM39.1573 45.6635L39.4152 45.4748L25.0521 25.8388L24.7942 26.0275L24.5362 26.2161L38.8994 45.8522L39.1573 45.6635ZM24.7942 26.0275H24.4746V56.5938H24.7942H25.1137V26.0275H24.7942ZM24.7942 56.5938V56.2742H22.8717V56.5938V56.9133H24.7942V56.5938ZM22.8717 56.5938H23.1913V20.2053H22.8717H22.5522V56.5938H22.8717ZM22.8717 20.2053L22.6138 20.3939L38.8993 42.6664L39.1573 42.4778L39.4153 42.2892L23.1297 20.0167L22.8717 20.2053ZM39.1573 42.4778L39.4134 42.669L56.0834 20.3416L55.8273 20.1504L55.5712 19.9592L38.9012 42.2866L39.1573 42.4778ZM55.8273 20.1504H55.5077V56.5938H55.8273H56.1469V20.1504H55.8273Z" fill="#F6F6F1"/>
<path d="M31.311 31.4883L49.9647 56.9575H46.7799L29.8955 33.8175L31.311 31.4883Z" fill="#F6F6F1"/>
<path d="M39.1756 36.9773C38.7728 36.9773 38.4158 36.8308 38.1046 36.5379C37.8116 36.2449 37.6652 35.8879 37.6652 35.4668C37.6652 35.0274 37.8116 34.6612 38.1046 34.3683C38.4158 34.0754 38.7728 33.9289 39.1756 33.9289C39.615 33.9289 39.9812 34.0845 40.2741 34.3958C40.5671 34.6887 40.7135 35.0457 40.7135 35.4668C40.7135 35.8696 40.5671 36.2266 40.2741 36.5379C39.9812 36.8308 39.615 36.9773 39.1756 36.9773Z" fill="#F6F6F1"/>
</svg>
