<svg width="80" height="77" viewBox="0 0 80 77" fill="none" xmlns="http://www.w3.org/2000/svg">
<path d="M39.7324 0.0947266C61.6267 0.0947266 79.3711 17.2922 79.3711 38.5C79.3711 59.7078 61.6267 76.9053 39.7324 76.9053C17.8383 76.9051 0.0947266 59.7077 0.0947266 38.5C0.0947266 17.2923 17.8383 0.0949044 39.7324 0.0947266Z" fill="#5F3E31" stroke="#5F3E31" stroke-width="0.189655"/>
<path d="M55.7072 56.5352H53.7866V25.8607L39.053 45.6153L24.7035 25.9979V56.5352H22.7829V20.1813L39.053 42.4326L55.7072 20.1264V56.5352Z" fill="#F6F6F1"/>
<path d="M55.7072 56.5352V56.8544H56.0264V56.5352H55.7072ZM53.7866 56.5352H53.4673V56.8544H53.7866V56.5352ZM53.7866 25.8607H54.1058V24.8986L53.5307 25.6698L53.7866 25.8607ZM39.053 45.6153L38.7953 45.8038L39.0505 46.1526L39.3089 45.8061L39.053 45.6153ZM24.7035 25.9979L24.9611 25.8094L24.3842 25.0206V25.9979H24.7035ZM24.7035 56.5352V56.8544H25.0227V56.5352H24.7035ZM22.7829 56.5352H22.4636V56.8544H22.7829V56.5352ZM22.7829 20.1813L23.0406 19.9928L22.4636 19.2037V20.1813H22.7829ZM39.053 42.4326L38.7952 42.621L39.0503 42.9698L39.3088 42.6236L39.053 42.4326ZM55.7072 20.1264H56.0264V19.1651L55.4513 19.9354L55.7072 20.1264ZM55.7072 56.5352V56.2159H53.7866V56.5352V56.8544H55.7072V56.5352ZM53.7866 56.5352H54.1058V25.8607H53.7866H53.4673V56.5352H53.7866ZM53.7866 25.8607L53.5307 25.6698L38.797 45.4244L39.053 45.6153L39.3089 45.8061L54.0425 26.0516L53.7866 25.8607ZM39.053 45.6153L39.3106 45.4268L24.9611 25.8094L24.7035 25.9979L24.4458 26.1864L38.7953 45.8038L39.053 45.6153ZM24.7035 25.9979H24.3842V56.5352H24.7035H25.0227V25.9979H24.7035ZM24.7035 56.5352V56.2159H22.7829V56.5352V56.8544H24.7035V56.5352ZM22.7829 56.5352H23.1021V20.1813H22.7829H22.4636V56.5352H22.7829ZM22.7829 20.1813L22.5252 20.3697L38.7952 42.621L39.053 42.4326L39.3107 42.2441L23.0406 19.9928L22.7829 20.1813ZM39.053 42.4326L39.3088 42.6236L55.963 20.3174L55.7072 20.1264L55.4513 19.9354L38.7971 42.2416L39.053 42.4326ZM55.7072 20.1264H55.3879V56.5352H55.7072H56.0264V20.1264H55.7072Z" fill="#F6F6F1"/>
<path d="M31.2333 31.3555L49.8413 56.7208H46.6643L29.8213 33.6752L31.2333 31.3555Z" fill="#F6F6F1"/>
<path d="M39.0787 36.9146C38.6763 36.9146 38.3196 36.7683 38.0087 36.4756C37.716 36.183 37.5697 35.8263 37.5697 35.4056C37.5697 34.9666 37.716 34.6008 38.0087 34.3081C38.3196 34.0155 38.6763 33.8691 39.0787 33.8691C39.5177 33.8691 39.8835 34.0246 40.1762 34.3356C40.4688 34.6282 40.6152 34.9849 40.6152 35.4056C40.6152 35.808 40.4688 36.1647 40.1762 36.4756C39.8835 36.7683 39.5177 36.9146 39.0787 36.9146Z" fill="#F6F6F1"/>
</svg>
