<svg width="1878" height="541" viewBox="0 0 1878 541" fill="none" xmlns="http://www.w3.org/2000/svg">
<path d="M347.607 116.28V405.077H345.849L133.977 168.589V402H111.999V113.643H114.196L325.629 351.45V116.28H347.607ZM485.202 402V116.28H686.964L683.887 138.259H508.06V246.832H657.953L655.315 268.371H508.06V380.461H686.964L683.887 402H485.202ZM1070.89 259.14C1070.89 300.167 1056.68 334.893 1028.25 363.318C999.83 391.743 964.811 405.956 923.198 405.956C881.879 405.956 847.006 391.743 818.581 363.318C790.155 334.306 775.943 299.727 775.943 259.58C775.943 218.846 790.302 184.121 819.02 155.402C847.739 126.684 882.465 112.324 923.198 112.324C964.518 112.324 999.536 126.684 1028.25 155.402C1056.68 183.828 1070.89 218.407 1070.89 259.14ZM835.724 348.373C859.461 372.695 888.619 384.857 923.198 384.857C958.364 384.271 987.668 372.109 1011.11 348.373C1035.14 324.929 1047.16 295.185 1047.16 259.14C1047.16 223.682 1035 194.084 1010.67 170.347C987.522 146.318 958.364 134.303 923.198 134.303C888.619 134.303 859.607 146.318 836.164 170.347C811.548 194.377 799.24 223.975 799.24 259.14C799.24 294.892 811.401 324.636 835.724 348.373ZM1339.48 358.922L1210.24 177.82V402H1187.83V113.204H1190.02L1341.23 325.515L1491.57 113.204H1493.33V402H1471.35V177.82L1342.55 358.922H1339.48ZM1587.04 402V116.28H1788.8L1785.73 138.259H1609.9V246.832H1759.79L1757.16 268.371H1609.9V380.461H1788.8L1785.73 402H1587.04Z" fill="white"/>
</svg>
